<svg width="24" height="24" viewBox="0 0 24 24" fill="none" xmlns="http://www.w3.org/2000/svg">
<rect width="24" height="24" rx="12" fill="#1E2B6C"/>
<path d="M8.37504 9.05615C8.37321 9.09932 8.38023 9.14242 8.39567 9.18278C8.41111 9.22314 8.43464 9.25991 8.46482 9.29084C8.495 9.32177 8.53118 9.3462 8.57115 9.36263C8.61112 9.37905 8.65403 9.38713 8.69723 9.38636H9.80017C9.98467 9.38636 10.1317 9.23529 10.1558 9.05214C10.2761 8.17513 10.8777 7.5361 11.9499 7.5361C12.867 7.5361 13.7066 7.99465 13.7066 9.09759C13.7066 9.94652 13.2066 10.3369 12.4165 10.9305C11.5168 11.5842 10.8042 12.3476 10.855 13.5869L10.859 13.877C10.8604 13.9647 10.8962 14.0484 10.9588 14.1099C11.0213 14.1714 11.1055 14.2059 11.1932 14.2059H12.2774C12.3661 14.2059 12.4511 14.1707 12.5138 14.108C12.5765 14.0453 12.6117 13.9603 12.6117 13.8717V13.7313C12.6117 12.7714 12.9766 12.492 13.9619 11.7447C14.7761 11.1257 15.625 10.4385 15.625 8.99599C15.625 6.97594 13.9192 6 12.0515 6C10.3577 6 8.50205 6.78877 8.37504 9.05615ZM10.4566 16.7607C10.4566 17.4733 11.0248 18 11.8069 18C12.621 18 13.1812 17.4733 13.1812 16.7607C13.1812 16.0227 12.6197 15.504 11.8055 15.504C11.0248 15.504 10.4566 16.0227 10.4566 16.7607Z" fill="white"/>
</svg>
