<?xml version="1.0" encoding="utf-8"?><svg xmlns="http://www.w3.org/2000/svg" xmlns:xlink="http://www.w3.org/1999/xlink"><symbol viewBox="0 0 24 24" id="address" xmlns="http://www.w3.org/2000/svg"><path d="M23.2403 21.7224L21.5999 16.8H19.7999L20.7995 21.6H3.20034L4.19994 16.8H2.39994L0.758344 21.7224C0.341944 22.9752 1.07994 24 2.39994 24H21.5999C22.9199 24 23.6579 22.9752 23.2403 21.7224ZM17.9999 6C17.9999 4.4087 17.3678 2.88258 16.2426 1.75736C15.1174 0.632141 13.5912 0 11.9999 0C10.4086 0 8.88252 0.632141 7.7573 1.75736C6.63209 2.88258 5.99994 4.4087 5.99994 6C5.99994 11.73 11.9999 18 11.9999 18C11.9999 18 17.9999 11.73 17.9999 6ZM8.75994 6.072C8.76026 5.21291 9.10176 4.38911 9.70934 3.78175C10.3169 3.17439 11.1409 2.8332 11.9999 2.8332C12.8591 2.8332 13.683 3.17449 14.2905 3.782C14.8981 4.3895 15.2393 5.21346 15.2393 6.0726C15.2393 6.93174 14.8981 7.7557 14.2905 8.3632C13.683 8.97071 12.8591 9.312 11.9999 9.312C11.1406 9.312 10.3165 8.97064 9.70892 8.36303C9.1013 7.75541 8.75994 6.9313 8.75994 6.072Z"/></symbol><symbol viewBox="0 0 48 24" id="cta-done" xmlns="http://www.w3.org/2000/svg"><rect width="48" height="24" rx="12"/><path d="M31.83 7.26174L21.0917 18L16.17 13.0783L17.4318 11.8166L21.0917 15.4676L30.5683 6L31.83 7.26174Z"/></symbol><symbol viewBox="0 0 14 14" id="done" xmlns="http://www.w3.org/2000/svg"><path d="M7 0C8.85652 0 10.637 0.737498 11.9497 2.05025C13.2625 3.36301 14 5.14348 14 7C14 8.85652 13.2625 10.637 11.9497 11.9497C10.637 13.2625 8.85652 14 7 14C5.14348 14 3.36301 13.2625 2.05025 11.9497C0.737498 10.637 0 8.85652 0 7C0 5.14348 0.737498 3.36301 2.05025 2.05025C3.36301 0.737498 5.14348 0 7 0ZM6.128 8.381L4.573 6.825C4.51725 6.76925 4.45107 6.72503 4.37824 6.69486C4.3054 6.66469 4.22734 6.64917 4.1485 6.64917C4.06966 6.64917 3.9916 6.66469 3.91876 6.69486C3.84593 6.72503 3.77975 6.76925 3.724 6.825C3.61142 6.93758 3.54817 7.09028 3.54817 7.2495C3.54817 7.40872 3.61142 7.56142 3.724 7.674L5.704 9.654C5.75959 9.71003 5.82572 9.7545 5.89857 9.78485C5.97143 9.8152 6.04957 9.83082 6.1285 9.83082C6.20743 9.83082 6.28557 9.8152 6.35843 9.78485C6.43128 9.7545 6.49741 9.71003 6.553 9.654L10.653 5.553C10.7095 5.49748 10.7544 5.43133 10.7852 5.35836C10.816 5.28539 10.8321 5.20705 10.8324 5.12785C10.8328 5.04864 10.8175 4.97015 10.7874 4.8969C10.7573 4.82365 10.7129 4.75708 10.657 4.70104C10.601 4.645 10.5345 4.6006 10.4613 4.5704C10.388 4.54019 10.3096 4.52478 10.2304 4.52506C10.1512 4.52533 10.0728 4.54129 9.99979 4.572C9.92678 4.60271 9.86058 4.64757 9.805 4.704L6.128 8.381Z"/></symbol><symbol viewBox="0 0 48 48" id="map" xmlns="http://www.w3.org/2000/svg"><path d="M48 0L0 24L18 30L24 48L48 0Z"/></symbol><symbol viewBox="0 0 24 24" id="phone" xmlns="http://www.w3.org/2000/svg"><path d="M16 2H8C7.46957 2 6.96086 2.21071 6.58579 2.58579C6.21071 2.96086 6 3.46957 6 4V20C6 20.5304 6.21071 21.0391 6.58579 21.4142C6.96086 21.7893 7.46957 22 8 22H16C16.5304 22 17.0391 21.7893 17.4142 21.4142C17.7893 21.0391 18 20.5304 18 20V4C18 3.46957 17.7893 2.96086 17.4142 2.58579C17.0391 2.21071 16.5304 2 16 2ZM13 21H11V20H13V21ZM16 19H8V5H16V19Z"/></symbol><symbol viewBox="0 0 24 24" id="question" xmlns="http://www.w3.org/2000/svg"><rect width="24" height="24" rx="12"/><path d="M8.37504 9.05615C8.37321 9.09932 8.38023 9.14242 8.39567 9.18278C8.41111 9.22314 8.43464 9.25991 8.46482 9.29084C8.495 9.32177 8.53118 9.3462 8.57115 9.36263C8.61112 9.37905 8.65403 9.38713 8.69723 9.38636H9.80017C9.98467 9.38636 10.1317 9.23529 10.1558 9.05214C10.2761 8.17513 10.8777 7.5361 11.9499 7.5361C12.867 7.5361 13.7066 7.99465 13.7066 9.09759C13.7066 9.94652 13.2066 10.3369 12.4165 10.9305C11.5168 11.5842 10.8042 12.3476 10.855 13.5869L10.859 13.877C10.8604 13.9647 10.8962 14.0484 10.9588 14.1099C11.0213 14.1714 11.1055 14.2059 11.1932 14.2059H12.2774C12.3661 14.2059 12.4511 14.1707 12.5138 14.108C12.5765 14.0453 12.6117 13.9603 12.6117 13.8717V13.7313C12.6117 12.7714 12.9766 12.492 13.9619 11.7447C14.7761 11.1257 15.625 10.4385 15.625 8.99599C15.625 6.97594 13.9192 6 12.0515 6C10.3577 6 8.50205 6.78877 8.37504 9.05615ZM10.4566 16.7607C10.4566 17.4733 11.0248 18 11.8069 18C12.621 18 13.1812 17.4733 13.1812 16.7607C13.1812 16.0227 12.6197 15.504 11.8055 15.504C11.0248 15.504 10.4566 16.0227 10.4566 16.7607Z"/></symbol><symbol viewBox="0 0 40 40" id="reviews" xmlns="http://www.w3.org/2000/svg"><path fill-rule="evenodd" clip-rule="evenodd" d="M20 0C8.954 0 0 8.954 0 20C0 31.046 8.954 40 20 40C31.046 40 40 31.046 40 20C40 8.954 31.046 0 20 0ZM13 15C13 14.0807 13.1811 13.1705 13.5328 12.3212C13.8846 11.4719 14.4002 10.7003 15.0503 10.0503C15.7003 9.40024 16.4719 8.88463 17.3212 8.53284C18.1705 8.18106 19.0807 8 20 8C20.9193 8 21.8295 8.18106 22.6788 8.53284C23.5281 8.88463 24.2997 9.40024 24.9497 10.0503C25.5998 10.7003 26.1154 11.4719 26.4672 12.3212C26.8189 13.1705 27 14.0807 27 15C27 16.8565 26.2625 18.637 24.9497 19.9497C23.637 21.2625 21.8565 22 20 22C18.1435 22 16.363 21.2625 15.0503 19.9497C13.7375 18.637 13 16.8565 13 15ZM32.516 29.968C31.0184 31.8507 29.115 33.371 26.9479 34.4154C24.7807 35.4599 22.4057 36.0015 20 36C17.5943 36.0015 15.2193 35.4599 13.0521 34.4154C10.885 33.371 8.98162 31.8507 7.484 29.968C10.726 27.642 15.15 26 20 26C24.85 26 29.274 27.642 32.516 29.968Z"/></symbol><symbol viewBox="0 0 48 48" id="smile" xmlns="http://www.w3.org/2000/svg"><path d="M24 0C10.7419 0 0 10.7419 0 24C0 37.2581 10.7419 48 24 48C37.2581 48 48 37.2581 48 24C48 10.7419 37.2581 0 24 0ZM24 43.3548C13.3258 43.3548 4.64516 34.6742 4.64516 24C4.64516 13.3258 13.3258 4.64516 24 4.64516C34.6742 4.64516 43.3548 13.3258 43.3548 24C43.3548 34.6742 34.6742 43.3548 24 43.3548ZM35.4 29.1871C34.4129 28.3645 32.9516 28.5 32.129 29.4871C30.1161 31.9065 27.1452 33.3 24 33.3C20.8548 33.3 17.8839 31.9161 15.871 29.4871C15.0484 28.5 13.5774 28.3742 12.6 29.1871C11.6129 30.0097 11.4871 31.471 12.3 32.4581C15.2032 35.9419 19.471 37.9355 24 37.9355C28.529 37.9355 32.7968 35.9419 35.7 32.4581C36.5226 31.471 36.3871 30.0097 35.4 29.1871ZM16.2581 22.4516C17.971 22.4516 19.3548 21.0677 19.3548 19.3548C19.3548 17.6419 17.971 16.2581 16.2581 16.2581C14.5452 16.2581 13.1613 17.6419 13.1613 19.3548C13.1613 21.0677 14.5452 22.4516 16.2581 22.4516ZM31.7419 16.6452C29.2548 16.6452 26.3323 18.2806 25.9452 20.7194C25.7806 21.8032 27.0581 22.4806 27.8613 21.7645L28.7806 20.9419C30.2129 19.6645 33.2516 19.6645 34.6839 20.9419L35.6032 21.7645C36.4258 22.4806 37.6936 21.7935 37.5194 20.7194C37.1516 18.2806 34.229 16.6452 31.7419 16.6452Z"/></symbol><symbol viewBox="0 0 24 24" id="tg" xmlns="http://www.w3.org/2000/svg"><path d="M12 2C6.48 2 2 6.48 2 12C2 17.52 6.48 22 12 22C17.52 22 22 17.52 22 12C22 6.48 17.52 2 12 2ZM16.64 8.8C16.49 10.38 15.84 14.22 15.51 15.99C15.37 16.74 15.09 16.99 14.83 17.02C14.25 17.07 13.81 16.64 13.25 16.27C12.37 15.69 11.87 15.33 11.02 14.77C10.03 14.12 10.67 13.76 11.24 13.18C11.39 13.03 13.95 10.7 14 10.49C14.0069 10.4582 14.006 10.4252 13.9973 10.3938C13.9886 10.3624 13.9724 10.3337 13.95 10.31C13.89 10.26 13.81 10.28 13.74 10.29C13.65 10.31 12.25 11.24 9.52 13.08C9.12 13.35 8.76 13.49 8.44 13.48C8.08 13.47 7.4 13.28 6.89 13.11C6.26 12.91 5.77 12.8 5.81 12.45C5.83 12.27 6.08 12.09 6.55 11.9C9.47 10.63 11.41 9.79 12.38 9.39C15.16 8.23 15.73 8.03 16.11 8.03C16.19 8.03 16.38 8.05 16.5 8.15C16.6 8.23 16.63 8.34 16.64 8.42C16.63 8.48 16.65 8.66 16.64 8.8Z"/></symbol><symbol viewBox="0 0 24 24" id="wa" xmlns="http://www.w3.org/2000/svg"><path fill-rule="evenodd" clip-rule="evenodd" d="M12 2C6.477 2 2 6.477 2 12C2 13.89 2.525 15.66 3.438 17.168L2.546 20.2C2.49478 20.3741 2.49141 20.5587 2.53624 20.7346C2.58107 20.9104 2.67245 21.0709 2.80076 21.1992C2.92907 21.3276 3.08958 21.4189 3.26542 21.4638C3.44125 21.5086 3.62592 21.5052 3.8 21.454L6.832 20.562C8.39074 21.5049 10.1782 22.0023 12 22C17.523 22 22 17.523 22 12C22 6.477 17.523 2 12 2ZM9.738 14.263C11.761 16.285 13.692 16.552 14.374 16.577C15.411 16.615 16.421 15.823 16.814 14.904C16.8632 14.7896 16.881 14.6641 16.8655 14.5405C16.85 14.417 16.8019 14.2998 16.726 14.201C16.178 13.501 15.437 12.998 14.713 12.498C14.5619 12.3932 14.3761 12.3512 14.1946 12.3806C14.0131 12.4101 13.8502 12.5088 13.74 12.656L13.14 13.571C13.1083 13.62 13.0591 13.6551 13.0025 13.6692C12.9459 13.6833 12.886 13.6754 12.835 13.647C12.428 13.414 11.835 13.018 11.409 12.592C10.983 12.166 10.611 11.6 10.402 11.219C10.3767 11.1705 10.3696 11.1145 10.3819 11.0611C10.3941 11.0078 10.425 10.9606 10.469 10.928L11.393 10.242C11.5252 10.1276 11.6106 9.96841 11.6328 9.79495C11.6549 9.62149 11.6123 9.44596 11.513 9.302C11.065 8.646 10.543 7.812 9.786 7.259C9.6881 7.18866 9.57369 7.14479 9.45385 7.13165C9.33402 7.11851 9.21282 7.13654 9.102 7.184C8.182 7.578 7.386 8.588 7.424 9.627C7.449 10.309 7.716 12.24 9.738 14.263Z"/></symbol><symbol viewBox="0 0 22 20" id="worktime" xmlns="http://www.w3.org/2000/svg"><path d="M15.5 13.25L18.36 14.94L17.61 16.16L14 14V9H15.5V13.25ZM22 13C22 16.87 18.87 20 15 20C12.62 20 10.53 18.81 9.26 17H3V9H0L10 0L17 6.29C19.89 7.15 22 9.83 22 13ZM20 13C20 10.24 17.76 8 15 8C12.24 8 10 10.24 10 13C10 15.76 12.24 18 15 18C17.76 18 20 15.76 20 13Z"/></symbol></svg>