<svg width="24" height="24" viewBox="0 0 24 24" fill="none" xmlns="http://www.w3.org/2000/svg">
<path d="M23.2403 21.7224L21.5999 16.8H19.7999L20.7995 21.6H3.20034L4.19994 16.8H2.39994L0.758344 21.7224C0.341944 22.9752 1.07994 24 2.39994 24H21.5999C22.9199 24 23.6579 22.9752 23.2403 21.7224ZM17.9999 6C17.9999 4.4087 17.3678 2.88258 16.2426 1.75736C15.1174 0.632141 13.5912 0 11.9999 0C10.4086 0 8.88252 0.632141 7.7573 1.75736C6.63209 2.88258 5.99994 4.4087 5.99994 6C5.99994 11.73 11.9999 18 11.9999 18C11.9999 18 17.9999 11.73 17.9999 6ZM8.75994 6.072C8.76026 5.21291 9.10176 4.38911 9.70934 3.78175C10.3169 3.17439 11.1409 2.8332 11.9999 2.8332C12.8591 2.8332 13.683 3.17449 14.2905 3.782C14.8981 4.3895 15.2393 5.21346 15.2393 6.0726C15.2393 6.93174 14.8981 7.7557 14.2905 8.3632C13.683 8.97071 12.8591 9.312 11.9999 9.312C11.1406 9.312 10.3165 8.97064 9.70892 8.36303C9.1013 7.75541 8.75994 6.9313 8.75994 6.072Z" fill="#36C6AB"/>
</svg>
