<svg width="48" height="48" viewBox="0 0 48 48" fill="none" xmlns="http://www.w3.org/2000/svg">
<path d="M24 0C10.7419 0 0 10.7419 0 24C0 37.2581 10.7419 48 24 48C37.2581 48 48 37.2581 48 24C48 10.7419 37.2581 0 24 0ZM24 43.3548C13.3258 43.3548 4.64516 34.6742 4.64516 24C4.64516 13.3258 13.3258 4.64516 24 4.64516C34.6742 4.64516 43.3548 13.3258 43.3548 24C43.3548 34.6742 34.6742 43.3548 24 43.3548ZM35.4 29.1871C34.4129 28.3645 32.9516 28.5 32.129 29.4871C30.1161 31.9065 27.1452 33.3 24 33.3C20.8548 33.3 17.8839 31.9161 15.871 29.4871C15.0484 28.5 13.5774 28.3742 12.6 29.1871C11.6129 30.0097 11.4871 31.471 12.3 32.4581C15.2032 35.9419 19.471 37.9355 24 37.9355C28.529 37.9355 32.7968 35.9419 35.7 32.4581C36.5226 31.471 36.3871 30.0097 35.4 29.1871ZM16.2581 22.4516C17.971 22.4516 19.3548 21.0677 19.3548 19.3548C19.3548 17.6419 17.971 16.2581 16.2581 16.2581C14.5452 16.2581 13.1613 17.6419 13.1613 19.3548C13.1613 21.0677 14.5452 22.4516 16.2581 22.4516ZM31.7419 16.6452C29.2548 16.6452 26.3323 18.2806 25.9452 20.7194C25.7806 21.8032 27.0581 22.4806 27.8613 21.7645L28.7806 20.9419C30.2129 19.6645 33.2516 19.6645 34.6839 20.9419L35.6032 21.7645C36.4258 22.4806 37.6936 21.7935 37.5194 20.7194C37.1516 18.2806 34.229 16.6452 31.7419 16.6452Z" fill="#36C6AB"/>
</svg>
