<?xml version="1.0" encoding="utf-8"?><svg viewBox="0 0 48 48" xmlns="http://www.w3.org/2000/svg" xmlns:xlink="http://www.w3.org/1999/xlink"><style>:root>svg{display:none}:root>svg:target{display:block}</style><svg fill="none" viewBox="0 0 24 24" id="address" xmlns="http://www.w3.org/2000/svg"><path d="M23.24 21.722 21.6 16.8h-1.8l1 4.8H3.2l1-4.8H2.4L.758 21.722C.342 22.975 1.08 24 2.4 24h19.2c1.32 0 2.058-1.025 1.64-2.278ZM18 6A6 6 0 1 0 6 6c0 5.73 6 12 6 12s6-6.27 6-12Zm-9.24.072a3.24 3.24 0 1 1 6.48.002 3.24 3.24 0 0 1-6.48-.002Z" fill="#36C6AB"/></svg><svg fill="none" viewBox="0 0 48 24" id="cta-done" xmlns="http://www.w3.org/2000/svg"><rect width="48" height="24" rx="12" fill="#1E2B6C"/><path d="M31.83 7.262 21.092 18l-4.922-4.922 1.262-1.261 3.66 3.65L30.568 6l1.262 1.262Z" fill="#fff"/></svg><svg fill="none" viewBox="0 0 14 14" id="done" xmlns="http://www.w3.org/2000/svg"><path d="M7 0a7 7 0 1 1 0 14A7 7 0 0 1 7 0Zm-.872 8.381L4.573 6.825a.6.6 0 1 0-.849.849l1.98 1.98a.598.598 0 0 0 .849 0l4.1-4.101a.6.6 0 1 0-.848-.849L6.128 8.381Z" fill="#36C6AB"/></svg><svg fill="none" viewBox="0 0 48 48" id="map" xmlns="http://www.w3.org/2000/svg"><path d="M48 0 0 24l18 6 6 18L48 0Z" fill="#36C6AB"/></svg><svg fill="none" viewBox="0 0 24 24" id="phone" xmlns="http://www.w3.org/2000/svg"><path d="M16 2H8a2 2 0 0 0-2 2v16a2 2 0 0 0 2 2h8a2 2 0 0 0 2-2V4a2 2 0 0 0-2-2Zm-3 19h-2v-1h2v1Zm3-2H8V5h8v14Z" fill="#36C6AB"/></svg><svg fill="none" viewBox="0 0 24 24" id="question" xmlns="http://www.w3.org/2000/svg"><rect width="24" height="24" rx="12" fill="#1E2B6C"/><path d="M8.375 9.056a.317.317 0 0 0 .322.33H9.8c.185 0 .332-.15.356-.334.12-.877.722-1.516 1.794-1.516.917 0 1.757.459 1.757 1.562 0 .849-.5 1.239-1.29 1.832-.9.654-1.613 1.418-1.562 2.657l.004.29a.334.334 0 0 0 .334.329h1.084a.334.334 0 0 0 .335-.334v-.14c0-.96.365-1.24 1.35-1.987.814-.62 1.663-1.306 1.663-2.749 0-2.02-1.706-2.996-3.573-2.996-1.694 0-3.55.789-3.677 3.056Zm2.082 7.705c0 .712.568 1.239 1.35 1.239.814 0 1.374-.527 1.374-1.24 0-.737-.561-1.256-1.375-1.256-.781 0-1.35.519-1.35 1.257Z" fill="#fff"/></svg><svg fill="none" viewBox="0 0 40 40" id="reviews" xmlns="http://www.w3.org/2000/svg"><path fill-rule="evenodd" clip-rule="evenodd" d="M20 0C8.954 0 0 8.954 0 20s8.954 20 20 20 20-8.954 20-20S31.046 0 20 0Zm-7 15a7.001 7.001 0 0 1 11.95-4.95A6.998 6.998 0 0 1 20 22a7 7 0 0 1-7-7Zm19.516 14.968A15.98 15.98 0 0 1 20 36a15.98 15.98 0 0 1-12.516-6.032C10.726 27.642 15.15 26 20 26s9.274 1.642 12.516 3.968Z" fill="#36C6AB"/></svg><svg fill="none" viewBox="0 0 48 48" id="smile" xmlns="http://www.w3.org/2000/svg"><path d="M24 0C10.742 0 0 10.742 0 24s10.742 24 24 24 24-10.742 24-24S37.258 0 24 0Zm0 43.355c-10.674 0-19.355-8.68-19.355-19.355 0-10.674 8.68-19.355 19.355-19.355 10.674 0 19.355 8.68 19.355 19.355 0 10.674-8.68 19.355-19.355 19.355Zm11.4-14.168a2.32 2.32 0 0 0-3.271.3A10.56 10.56 0 0 1 24 33.3a10.53 10.53 0 0 1-8.129-3.813 2.33 2.33 0 0 0-3.271-.3 2.329 2.329 0 0 0-.3 3.271A15.191 15.191 0 0 0 24 37.935c4.529 0 8.797-1.993 11.7-5.477a2.32 2.32 0 0 0-.3-3.27Zm-19.142-6.735a3.093 3.093 0 0 0 3.097-3.097 3.093 3.093 0 0 0-3.097-3.097 3.093 3.093 0 0 0-3.097 3.097 3.093 3.093 0 0 0 3.097 3.097Zm15.484-5.807c-2.487 0-5.41 1.636-5.797 4.074-.164 1.084 1.113 1.762 1.916 1.046l.92-.823c1.432-1.277 4.47-1.277 5.903 0l.92.823c.822.716 2.09.029 1.915-1.046-.367-2.438-3.29-4.074-5.777-4.074Z" fill="#36C6AB"/></svg><svg fill="none" viewBox="0 0 24 24" id="tg" xmlns="http://www.w3.org/2000/svg"><path d="M12 2C6.48 2 2 6.48 2 12s4.48 10 10 10 10-4.48 10-10S17.52 2 12 2Zm4.64 6.8c-.15 1.58-.8 5.42-1.13 7.19-.14.75-.42 1-.68 1.03-.58.05-1.02-.38-1.58-.75-.88-.58-1.38-.94-2.23-1.5-.99-.65-.35-1.01.22-1.59.15-.15 2.71-2.48 2.76-2.69a.2.2 0 0 0-.05-.18c-.06-.05-.14-.03-.21-.02-.09.02-1.49.95-4.22 2.79-.4.27-.76.41-1.08.4-.36-.01-1.04-.2-1.55-.37-.63-.2-1.12-.31-1.08-.66.02-.18.27-.36.74-.55 2.92-1.27 4.86-2.11 5.83-2.51 2.78-1.16 3.35-1.36 3.73-1.36.08 0 .27.02.39.12.1.08.13.19.14.27-.01.06.01.24 0 .38Z" fill="#36C6AB"/></svg><svg fill="none" viewBox="0 0 24 24" id="wa" xmlns="http://www.w3.org/2000/svg"><path fill-rule="evenodd" clip-rule="evenodd" d="M12 2C6.477 2 2 6.477 2 12c0 1.89.525 3.66 1.438 5.168L2.546 20.2A1.01 1.01 0 0 0 3.8 21.454l3.032-.892A9.96 9.96 0 0 0 12 22c5.523 0 10-4.477 10-10S17.523 2 12 2ZM9.738 14.263c2.023 2.022 3.954 2.289 4.636 2.314 1.037.038 2.047-.754 2.44-1.673a.7.7 0 0 0-.088-.703c-.548-.7-1.289-1.203-2.013-1.703a.71.71 0 0 0-.973.158l-.6.915a.23.23 0 0 1-.305.076c-.407-.233-1-.629-1.426-1.055-.426-.426-.798-.992-1.007-1.373a.23.23 0 0 1 .067-.291l.924-.686a.71.71 0 0 0 .12-.94c-.448-.656-.97-1.49-1.727-2.043a.7.7 0 0 0-.684-.075c-.92.394-1.716 1.404-1.678 2.443.025.682.292 2.613 2.314 4.636Z" fill="#36C6AB"/></svg><svg fill="none" viewBox="0 0 22 20" id="worktime" xmlns="http://www.w3.org/2000/svg"><path d="m15.5 13.25 2.86 1.69-.75 1.22L14 14V9h1.5v4.25ZM22 13c0 3.87-3.13 7-7 7-2.38 0-4.47-1.19-5.74-3H3V9H0l10-9 7 6.29c2.89.86 5 3.54 5 6.71Zm-2 0c0-2.76-2.24-5-5-5s-5 2.24-5 5 2.24 5 5 5 5-2.24 5-5Z" fill="#36C6AB"/></svg></svg>